<svg xmlns="http://www.w3.org/2000/svg" xmlns:xlink="http://www.w3.org/1999/xlink" data-v-78ae61a2="" version="1.0" width="" height="" viewBox="85 80 170.000000 95" preserveAspectRatio="xMidYMid meet" color-interpolation-filters="sRGB" class="el-tooltip" style="margin: auto;">
    
    
    <g data-v-78ae61a2="" fill="#d4ba7f" class="newinitialsvg-g newinitialsvg" transform="translate(89.92250061035156,84.1137466430664)">
        <g class="tp-name" transform="translate(0,0)">
            <g transform="translate(0, 0)">
                <g fill="#d4ba7f" transform="translate(0,15)">
                    <path d="M33.30-24.57L37.21-19.93L31.14-14.76L27.18-19.44L33.30-24.57ZM24.03-17.68L37.48-5.71L33.39-1.13L24.03-9.40L24.03 0.09L13.00 0.09L13.00-3.28L17.01-3.28L17.01-20.29L5.26-20.29L5.26-23.67L24.03-23.67L24.03-17.68ZM20.38-25.24Q18.50-25.24 17.14-26.59L17.14-26.59Q15.79-27.90 15.79-29.83L15.79-29.83Q15.79-31.72 17.14-33.07L17.14-33.07Q18.50-34.38 20.38-34.38L20.38-34.38Q22.27-34.38 23.63-33.07L23.63-33.07Q24.97-31.72 24.97-29.83L24.97-29.83Q24.97-27.90 23.63-26.59L23.63-26.59Q22.27-25.24 20.38-25.24L20.38-25.24ZM3.55-16.34L16.20-16.34L9.04-0.77L3.15-3.15L7.74-12.96L3.55-12.96L3.55-16.34Z" transform="translate(-3.15, 34.38)"/>
                </g>
            </g>
            <g transform="translate(38.335, 0)">
                <g fill="#d4ba7f" transform="translate(0,15)">
                    <path d="M13.14 0.72L6.39 0.72L6.39-32.53L13.14-32.53L13.14 0.72ZM5.85-12.51L3.15-12.51L4.50-25.43L5.85-12.51ZM16.43-12.51L13.68-12.51L15.07-25.43L16.43-12.51ZM38.61-26.10L38.61-6.12L17.77-6.12L17.77-26.10L38.61-26.10ZM31.99-9.49L31.99-22.72L24.34-22.72L24.34-17.77L30.69-17.77L30.69-14.40L24.34-14.40L24.34-9.49L31.99-9.49ZM16.96-32.58L39.28-32.58L39.28-29.20L16.96-29.20L16.96-32.58ZM16.61 0.58L16.61-2.79L39.64-2.79L39.64 0.58L16.61 0.58Z" transform="translate(-3.15, 34.38)"/>
                </g>
            </g>
            <g transform="translate(78.83000000000001, 0)">
                <g fill="#d4ba7f" transform="translate(0,15)">
                    <path d="M7.47-18.09L5.31-16.34L1.35-21.02L14.22-31.81L14.22-0.27L7.47-0.27L7.47-18.09ZM37.30-22.86L37.66-18.63L31.45-18.04L36.59-0.72L29.79 1.44L24.25-17.37L16.56-16.65L16.16-20.88L22.99-21.51L20.25-30.87L27-32.98L30.20-22.18L37.30-22.86ZM33.75-25.61Q32.45-25.61 31.50-26.50L31.50-26.50Q30.60-27.45 30.60-28.75L30.60-28.75Q30.60-30.06 31.50-31.00L31.50-31.00Q32.45-31.90 33.75-31.90L33.75-31.90Q35.05-31.90 36-31.00L36-31.00Q36.90-30.06 36.90-28.75L36.90-28.75Q36.90-27.45 36-26.50L36-26.50Q35.05-25.61 33.75-25.61L33.75-25.61Z" transform="translate(-1.35, 34.38)"/>
                </g>
            </g>
            <g transform="translate(119.14500000000001, 0)" mask="url(#6e4eac6c4dfd5bda15fe97d14d844dfe)">
                <polyline fill-opacity="1" fill="#d4ba7f" x="0" y="0" width="41.01" height="41.82" points="0,12 41.01,0 41.01,65.82 0,53.82 0,12"/>
                <g fill="#fff" transform="translate(3.0000008392333974,15)">
                    <path d="M11.65-15.57Q14.26-15.57 16.16-13.72L16.16-13.72Q18-11.88 18-9.27L18-9.27Q18-6.66 16.16-4.77L16.16-4.77Q14.31-2.92 11.65-2.92L11.65-2.92Q9.09-2.92 7.25-4.72L7.25-4.72Q5.44-6.52 5.35-9.09L5.35-9.09L3.15-9.67L6.75-23.94L4.41-23.94L4.41-27.31L16.74-27.31L16.74-23.94L13.05-23.94L10.89-15.52Q11.16-15.57 11.65-15.57L11.65-15.57ZM11.65-7.42Q12.42-7.42 12.96-7.96L12.96-7.96Q13.50-8.50 13.50-9.27L13.50-9.27Q13.50-10.04 12.96-10.53L12.96-10.53Q12.42-11.07 11.65-11.07L11.65-11.07Q10.93-11.07 10.39-10.53L10.39-10.53Q9.86-10.04 9.86-9.27L9.86-9.27Q9.86-8.50 10.39-7.96L10.39-7.96Q10.93-7.42 11.65-7.42L11.65-7.42ZM36.81-32.13L36.81-18.99L38.16-18.99L38.16-0.04L22.32-0.04L22.32-3.42L31.63-3.42L31.63-15.62L18.95-15.62L18.95-27.13L25.11-27.13L25.11-18.99L30.64-18.99L30.64-28.75L18.22-28.75L18.22-32.13L36.81-32.13ZM18.81-11.25L30.15-11.25L30.15-7.88L18.81-7.88L18.81-11.25Z" transform="translate(-3.15, 34.38)"/>
                </g>
            </g>
        </g>
        <g class="tp-slogan" fill="#d4ba7f" transform="translate(0,72.81999969482422)">
            <rect x="0" height="1" y="3.9750003814697266" width="31.422500610351562"/>
            <rect height="1" y="3.9750003814697266" width="31.422500610351562" x="128.7324981689453"/>
            <g transform="translate(34.42250061035156,0)">
                <path d="M2.20-1.03L7.36-1.03L7.36 0L1.03 0L1.03-8.58L7.27-8.58L7.27-7.59L2.20-7.59L2.20-4.92L6.89-4.92L6.89-3.89L2.20-3.89L2.20-1.03ZM11.06-7.59L8.16-7.59L8.16-8.58L15.09-8.58L15.09-7.59L12.19-7.59L12.19 0L11.06 0L11.06-7.59ZM17.44-1.03L22.59-1.03L22.59 0L16.27 0L16.27-8.58L22.50-8.58L22.50-7.59L17.44-7.59L17.44-4.92L22.13-4.92L22.13-3.89L17.44-3.89L17.44-1.03ZM28.22-3.70L25.41-3.70L25.41 0L24.23 0L24.23-8.58L28.22-8.58Q31.08-8.58 31.08-6.28L31.08-6.28Q31.08-4.88 29.86-4.22L29.86-4.22Q30.89-3.94 30.89-2.58L30.89-2.58L30.98-1.03Q30.94-0.38 31.41-0.19L31.41-0.19L31.41 0L29.95 0Q29.81-0.61 29.77-2.16L29.77-2.16Q29.81-3.70 28.22-3.70L28.22-3.70ZM28.31-7.64L25.41-7.64L25.41-4.69L28.13-4.69Q29.86-4.69 29.86-6.19L29.86-6.19Q29.86-7.64 28.31-7.64L28.31-7.64ZM34.13-8.58L38.44-1.64L38.44-8.58L39.56-8.58L39.56 0L38.25 0L33.89-6.94L33.84-6.94L33.84 0L32.72 0L32.72-8.58L34.13-8.58ZM47.02 0L46.17-2.48L42.70-2.48L41.81 0L40.64 0L43.88-8.58L45.19-8.58L48.28 0L47.02 0ZM44.44-7.31L43.08-3.52L45.75-3.52L44.48-7.31L44.44-7.31ZM49.31-8.58L50.48-8.58L50.48-1.03L54.84-1.03L54.84 0L49.31 0L49.31-8.58ZM66.47-6.05L66.47-6.05L65.34-6.05Q64.92-7.78 62.95-7.83L62.95-7.83Q60.23-7.69 60.14-4.36L60.14-4.36Q60.14-0.80 63-0.80L63-0.80Q64.97-0.84 65.44-3.19L65.44-3.19L66.56-3.19Q66.05 0.05 62.77 0.14L62.77 0.14Q59.02 0 58.92-4.31L58.92-4.31Q59.11-8.63 62.95-8.81L62.95-8.81Q66-8.72 66.47-6.05ZM74.72-4.27L74.72-4.27Q74.53-7.64 71.72-7.83L71.72-7.83Q68.86-7.69 68.72-4.27L68.72-4.27Q68.86-0.94 71.72-0.80L71.72-0.80Q74.53-0.98 74.72-4.27ZM75.89-4.27L75.89-4.27Q75.61 0 71.72 0.14L71.72 0.14Q67.78 0 67.50-4.27L67.50-4.27Q67.73-8.72 71.72-8.81L71.72-8.81Q75.61-8.67 75.89-4.27ZM80.77 0L77.30 0L77.30-8.58L80.81-8.58Q84.28-8.39 84.42-4.41L84.42-4.41Q84.23-0.09 80.77 0L80.77 0ZM80.63-7.64L78.47-7.64L78.47-0.98L80.72-0.98Q83.16-1.13 83.25-4.31L83.25-4.31Q83.20-7.55 80.63-7.64L80.63-7.64ZM87.19-1.03L92.34-1.03L92.34 0L86.02 0L86.02-8.58L92.25-8.58L92.25-7.59L87.19-7.59L87.19-4.92L91.88-4.92L91.88-3.89L87.19-3.89L87.19-1.03Z" transform="translate(-1.03125, 8.8125)"/>
            </g>
        </g>
    </g>
    <mask id="6e4eac6c4dfd5bda15fe97d14d844dfe">
        <polyline fill-opacity="1" x="0" y="0" width="41.01" height="41.82" points="0,12 41.01,0 41.01,65.82 0,53.82 0,12" fill="white"/>
        <g transform="translate(3.0000008392333974,15)" fill="black">
            <path d="M11.65-15.57Q14.26-15.57 16.16-13.72L16.16-13.72Q18-11.88 18-9.27L18-9.27Q18-6.66 16.16-4.77L16.16-4.77Q14.31-2.92 11.65-2.92L11.65-2.92Q9.09-2.92 7.25-4.72L7.25-4.72Q5.44-6.52 5.35-9.09L5.35-9.09L3.15-9.67L6.75-23.94L4.41-23.94L4.41-27.31L16.74-27.31L16.74-23.94L13.05-23.94L10.89-15.52Q11.16-15.57 11.65-15.57L11.65-15.57ZM11.65-7.42Q12.42-7.42 12.96-7.96L12.96-7.96Q13.50-8.50 13.50-9.27L13.50-9.27Q13.50-10.04 12.96-10.53L12.96-10.53Q12.42-11.07 11.65-11.07L11.65-11.07Q10.93-11.07 10.39-10.53L10.39-10.53Q9.86-10.04 9.86-9.27L9.86-9.27Q9.86-8.50 10.39-7.96L10.39-7.96Q10.93-7.42 11.65-7.42L11.65-7.42ZM36.81-32.13L36.81-18.99L38.16-18.99L38.16-0.04L22.32-0.04L22.32-3.42L31.63-3.42L31.63-15.62L18.95-15.62L18.95-27.13L25.11-27.13L25.11-18.99L30.64-18.99L30.64-28.75L18.22-28.75L18.22-32.13L36.81-32.13ZM18.81-11.25L30.15-11.25L30.15-7.88L18.81-7.88L18.81-11.25Z" transform="translate(-3.15, 34.38)"/>
        </g>
    </mask>
</svg>